<svg width="12" height="12" viewBox="0 0 12 12" fill="none" xmlns="http://www.w3.org/2000/svg">
<g id="CaretRight">
<path id="Vector" d="M3.85972 6.10972L7.60972 2.35972C7.64456 2.32488 7.68593 2.29724 7.73145 2.27839C7.77697 2.25953 7.82576 2.24983 7.87504 2.24983C7.92431 2.24983 7.9731 2.25953 8.01862 2.27839C8.06414 2.29724 8.10551 2.32488 8.14035 2.35972C8.17519 2.39456 8.20283 2.43593 8.22168 2.48145C8.24054 2.52697 8.25024 2.57576 8.25024 2.62504C8.25024 2.67431 8.24054 2.7231 8.22168 2.76862C8.20283 2.81414 8.17519 2.85551 8.14035 2.89035L4.65519 6.37504L8.14035 9.85972C8.21071 9.93009 8.25024 10.0255 8.25024 10.125C8.25024 10.2245 8.21071 10.32 8.14035 10.3903C8.06998 10.4607 7.97455 10.5002 7.87504 10.5002C7.77552 10.5002 7.68009 10.4607 7.60972 10.3903L3.85972 6.64035C3.82486 6.60552 3.7972 6.56416 3.77833 6.51864C3.75945 6.47311 3.74974 6.42432 3.74974 6.37504C3.74974 6.32575 3.75945 6.27696 3.77833 6.23143C3.7972 6.18591 3.82486 6.14455 3.85972 6.10972Z" fill="#337AB7"/>
</g>
</svg>
