<svg width="16" height="16" viewBox="0 0 16 16" fill="none" xmlns="http://www.w3.org/2000/svg">
<path d="M7.14597 10.8535L2.14597 5.85354C2.09952 5.80708 2.06267 5.75193 2.03753 5.69124C2.01238 5.63054 1.99944 5.56549 1.99944 5.49979C1.99944 5.43409 2.01238 5.36904 2.03753 5.30834C2.06267 5.24764 2.09952 5.19249 2.14597 5.14604C2.19243 5.09958 2.24758 5.06273 2.30827 5.03759C2.36897 5.01245 2.43402 4.99951 2.49972 4.99951C2.56542 4.99951 2.63047 5.01245 2.69117 5.03759C2.75187 5.06273 2.80702 5.09958 2.85347 5.14604L7.49972 9.79291L12.146 5.14604C12.2398 5.05222 12.367 4.99951 12.4997 4.99951C12.6324 4.99951 12.7597 5.05222 12.8535 5.14604C12.9473 5.23986 13 5.36711 13 5.49979C13 5.63247 12.9473 5.75972 12.8535 5.85354L7.85347 10.8535C7.80704 10.9 7.75189 10.9369 7.69119 10.9621C7.63049 10.9872 7.56543 11.0002 7.49972 11.0002C7.43401 11.0002 7.36895 10.9872 7.30825 10.9621C7.24755 10.9369 7.19241 10.9 7.14597 10.8535Z" fill="#333333"/>
</svg>
