<svg width="14" height="14" viewBox="0 0 14 14" fill="none" xmlns="http://www.w3.org/2000/svg">
<path d="M11.3752 3.9375V9.625C11.3752 9.74103 11.3292 9.85231 11.2471 9.93436C11.1651 10.0164 11.0538 10.0625 10.9377 10.0625C10.8217 10.0625 10.7104 10.0164 10.6284 9.93436C10.5463 9.85231 10.5002 9.74103 10.5002 9.625V4.99352L4.24727 11.247C4.16518 11.3291 4.05384 11.3752 3.93774 11.3752C3.82165 11.3752 3.7103 11.3291 3.62821 11.247C3.54612 11.1649 3.5 11.0536 3.5 10.9375C3.5 10.8214 3.54612 10.7101 3.62821 10.628L9.88173 4.375H5.25024C5.13421 4.375 5.02293 4.32891 4.94088 4.24686C4.85884 4.16481 4.81274 4.05353 4.81274 3.9375C4.81274 3.82147 4.85884 3.71019 4.94088 3.62814C5.02293 3.54609 5.13421 3.5 5.25024 3.5H10.9377C11.0538 3.5 11.1651 3.54609 11.2471 3.62814C11.3292 3.71019 11.3752 3.82147 11.3752 3.9375Z" fill="#333333"/>
</svg>
