<svg width="15" height="16" viewBox="0 0 15 16" fill="none" xmlns="http://www.w3.org/2000/svg">
<path fill-rule="evenodd" clip-rule="evenodd" d="M7.80589 1.03996C8.47168 0.374164 9.3747 0.00012207 10.3163 0.00012207C11.2579 0.00012207 12.1609 0.374164 12.8267 1.03996C13.4925 1.70576 13.8665 2.60878 13.8665 3.55036C13.8665 4.49195 13.4925 5.39496 12.8267 6.06076L6.68589 12.2016C6.49629 12.3912 6.2712 12.5417 6.02345 12.6444C5.77571 12.747 5.51017 12.7999 5.242 12.8C4.70039 12.8001 4.18093 12.585 3.79789 12.2021C3.41484 11.8192 3.19959 11.2998 3.19949 10.7582C3.19939 10.2166 3.41445 9.69714 3.79735 9.3141L9.75469 3.3557L10.5099 4.1109L4.55149 10.0682C4.46093 10.1588 4.38909 10.2663 4.34008 10.3846C4.29107 10.5029 4.26584 10.6298 4.26584 10.7578C4.26584 10.8859 4.29107 11.0127 4.34008 11.131C4.38909 11.2494 4.46093 11.3569 4.55149 11.4474C4.64205 11.538 4.74956 11.6098 4.86788 11.6588C4.9862 11.7078 5.11302 11.7331 5.24109 11.7331C5.36916 11.7331 5.49597 11.7078 5.61429 11.6588C5.73262 11.6098 5.84013 11.538 5.93069 11.4474L12.0715 5.30663C12.3021 5.07599 12.4851 4.80219 12.6099 4.50085C12.7347 4.19951 12.799 3.87653 12.799 3.55036C12.799 3.22419 12.7347 2.90122 12.6099 2.59988C12.4851 2.29854 12.3021 2.02473 12.0715 1.7941C11.8408 1.56346 11.567 1.38051 11.2657 1.25569C10.9644 1.13087 10.6414 1.06663 10.3152 1.06663C9.98905 1.06663 9.66607 1.13087 9.36473 1.25569C9.06339 1.38051 8.78959 1.56346 8.55895 1.7941L2.23575 8.11836C1.50223 8.87018 1.09453 9.88076 1.10099 10.9311C1.10746 11.9815 1.52758 12.987 2.2703 13.7297C3.01303 14.4724 4.01852 14.8925 5.06887 14.899C6.11922 14.9055 7.12981 14.4978 7.88162 13.7642L14.0224 7.62236L14.7776 8.37756L8.63575 14.5184C7.68126 15.4385 6.4037 15.9472 5.07795 15.9351C3.7522 15.9229 2.4842 15.3908 1.54679 14.4532C0.609367 13.5156 0.0774413 12.2476 0.0654537 10.9218C0.053466 9.59607 0.562375 8.31859 1.48269 7.36423L7.80589 1.0389V1.03996Z" fill="#757575"/>
</svg>
