<svg width="16" height="16" viewBox="0 0 16 16" fill="none" xmlns="http://www.w3.org/2000/svg">
<g id="WarningCircle">
<path id="Vector" d="M8 14.5C9.28558 14.5 10.5423 14.1188 11.6112 13.4046C12.6801 12.6903 13.5132 11.6752 14.0052 10.4874C14.4972 9.29972 14.6259 7.99279 14.3751 6.73191C14.1243 5.47104 13.5052 4.31285 12.5962 3.40381C11.6871 2.49476 10.529 1.8757 9.26808 1.6249C8.00721 1.37409 6.70027 1.50281 5.51256 1.99478C4.32484 2.48675 3.30967 3.31987 2.59544 4.38879C1.88122 5.45771 1.5 6.71442 1.5 8C1.50182 9.72335 2.18722 11.3756 3.40581 12.5942C4.6244 13.8128 6.27665 14.4982 8 14.5ZM8 2.5C9.08779 2.5 10.1512 2.82257 11.0556 3.42692C11.9601 4.03127 12.6651 4.89025 13.0813 5.89524C13.4976 6.90023 13.6065 8.0061 13.3943 9.073C13.1821 10.1399 12.6583 11.1199 11.8891 11.8891C11.1199 12.6583 10.1399 13.1821 9.07299 13.3943C8.0061 13.6065 6.90023 13.4976 5.89524 13.0813C4.89024 12.6651 4.03126 11.9601 3.42691 11.0556C2.82257 10.1512 2.5 9.0878 2.5 8C2.50165 6.54182 3.08165 5.14383 4.11274 4.11274C5.14383 3.08165 6.54181 2.50165 8 2.5ZM8.5 7.5V11C8.5 11.1326 8.44732 11.2598 8.35355 11.3536C8.25978 11.4473 8.13261 11.5 8 11.5C7.86739 11.5 7.74021 11.4473 7.64644 11.3536C7.55268 11.2598 7.5 11.1326 7.5 11L7.5 7.5C7.5 7.36739 7.55268 7.24021 7.64644 7.14645C7.74021 7.05268 7.86739 7 8 7C8.13261 7 8.25978 7.05268 8.35355 7.14645C8.44732 7.24021 8.5 7.36739 8.5 7.5ZM7.25 5.25C7.25 5.10166 7.29398 4.95666 7.3764 4.83332C7.45881 4.70999 7.57594 4.61386 7.71299 4.55709C7.85003 4.50033 8.00083 4.48547 8.14632 4.51441C8.2918 4.54335 8.42544 4.61478 8.53033 4.71967C8.63522 4.82456 8.70665 4.9582 8.73559 5.10368C8.76452 5.24917 8.74967 5.39997 8.69291 5.53701C8.63614 5.67406 8.54001 5.79119 8.41667 5.8736C8.29334 5.95601 8.14833 6 8 6C7.80108 6 7.61032 5.92098 7.46967 5.78033C7.32902 5.63968 7.25 5.44891 7.25 5.25Z" fill="#757575"/>
</g>
</svg>
