<svg width="16" height="16" viewBox="0 0 16 16" fill="none" xmlns="http://www.w3.org/2000/svg">
<g id="MagnifyingGlass">
<path id="Vector" d="M14.5307 13.4694L11.5625 10.5C12.4525 9.3403 12.868 7.8855 12.7247 6.43072C12.5815 4.97594 11.8902 3.63011 10.7912 2.66625C9.69215 1.70239 8.26764 1.19266 6.8066 1.24048C5.34557 1.2883 3.95742 1.89007 2.92376 2.92373C1.8901 3.95739 1.28833 5.34554 1.24051 6.80657C1.19269 8.2676 1.70242 9.69212 2.66628 10.7912C3.63014 11.8902 4.97597 12.5814 6.43075 12.7247C7.88553 12.8679 9.34033 12.4524 10.5 11.5625L13.4707 14.5338C13.5404 14.6035 13.6232 14.6589 13.7144 14.6966C13.8056 14.7344 13.9032 14.7538 14.0019 14.7538C14.1006 14.7538 14.1983 14.7344 14.2894 14.6966C14.3806 14.6589 14.4634 14.6035 14.5332 14.5338C14.6029 14.464 14.6583 14.3812 14.696 14.29C14.7338 14.1989 14.7532 14.1012 14.7532 14.0025C14.7532 13.9038 14.7338 13.8061 14.696 13.715C14.6583 13.6238 14.6029 13.541 14.5332 13.4713L14.5307 13.4694ZM2.75004 7.00001C2.75004 6.15944 2.99929 5.33774 3.46629 4.63883C3.93329 3.93992 4.59705 3.39519 5.37363 3.07352C6.15022 2.75185 7.00475 2.66768 7.82917 2.83167C8.65359 2.99566 9.41087 3.40043 10.0052 3.9948C10.5996 4.58918 11.0044 5.34645 11.1684 6.17087C11.3324 6.99529 11.2482 7.84982 10.9265 8.62641C10.6049 9.403 10.0601 10.0668 9.36121 10.5338C8.6623 11.0007 7.84061 11.25 7.00004 11.25C5.87322 11.2488 4.79289 10.8007 3.99611 10.0039C3.19933 9.20715 2.75119 8.12682 2.75004 7.00001Z" fill="white"/>
</g>
</svg>
