<svg width="9" height="7" viewBox="0 0 9 7" fill="none" xmlns="http://www.w3.org/2000/svg">
<path d="M7.97108 1.03365L2.97108 6.03365C2.94206 6.0627 2.9076 6.08575 2.86966 6.10148C2.83172 6.1172 2.79106 6.1253 2.74999 6.1253C2.70892 6.1253 2.66826 6.1172 2.63032 6.10148C2.59238 6.08575 2.55792 6.0627 2.5289 6.03365L0.341397 3.84615C0.282759 3.78751 0.249817 3.70798 0.249817 3.62505C0.249817 3.54213 0.282759 3.4626 0.341397 3.40396C0.400035 3.34532 0.479564 3.31238 0.562491 3.31238C0.645417 3.31238 0.724947 3.34532 0.783584 3.40396L2.74999 5.37075L7.5289 0.591458C7.58753 0.53282 7.66706 0.499878 7.74999 0.499878C7.83292 0.499878 7.91245 0.53282 7.97108 0.591458C8.02972 0.650095 8.06266 0.729625 8.06266 0.812552C8.06266 0.895478 8.02972 0.975008 7.97108 1.03365Z" fill="white"/>
</svg>
